<?xml version="1.0" encoding="utf-8"?>
<svg xmlns="http://www.w3.org/2000/svg" width="1128" height="1429" viewBox="2.146 2.146 496.879 476.856">
  <path fill="oklch(60% 0.15 200)" stroke="oklch(60% 0.15 200)" stroke-width=".5" d="M 222.887 49.976 L 277.887 49.976 L 250.387 2.345 L 222.887 49.976 Z M 195.387 97.608 L 250.387 97.608 L 222.887 49.976 L 195.387 97.608 Z"/>
  <path fill="oklch(60% 0.15 200)" stroke="oklch(60% 0.15 200)" stroke-width=".5" d="M 222.887 49.976 L 277.887 49.976 L 250.387 97.608 L 222.887 49.976 Z M 250.387 97.608 L 305.387 97.608 L 277.887 49.976 L 250.387 97.608 Z M 195.387 97.608 L 250.387 97.608 L 222.887 145.239 L 195.387 97.608 Z M 167.887 49.976 L 222.887 49.976 L 195.387 97.608 L 167.887 49.976 Z"/>
  <path fill="oklch(60% 0.15 200)" stroke="oklch(60% 0.15 200)" stroke-width=".5" d="M 167.887 145.239 L 222.887 145.239 L 195.387 97.608 L 167.887 145.239 Z M 222.887 145.239 L 277.887 145.239 L 250.387 97.608 L 222.887 145.239 Z M 167.887 145.239 L 222.887 145.239 L 195.387 192.871 L 167.887 145.239 Z"/>
  <path fill="oklch(60% 0.15 200)" stroke="oklch(60% 0.15 200)" stroke-width=".5" d="M 140.387 97.608 L 195.387 97.608 L 167.887 145.239 L 140.387 97.608 Z"/>
  <path fill="oklch(60% 0.15 200)" stroke="oklch(60% 0.15 200)" stroke-width=".5" d="M 140.387 192.871 L 195.387 192.871 L 167.887 145.239 L 140.387 192.871 Z M 195.387 192.871 L 250.387 192.871 L 222.887 145.239 L 195.387 192.871 Z M 140.387 192.871 L 195.387 192.871 L 167.887 240.502 L 140.387 192.871 Z"/>
  <path fill="oklch(60% 0.15 200)" stroke="oklch(60% 0.15 200)" stroke-width=".5" d="M 112.887 145.239 L 167.887 145.239 L 140.387 192.871 L 112.887 145.239 Z M 112.887 240.502 L 167.887 240.502 L 140.387 192.871 L 112.887 240.502 Z M 167.887 240.502 L 222.887 240.502 L 195.387 192.871 L 167.887 240.502 Z M 112.887 240.502 L 167.887 240.502 L 140.387 288.133 L 112.887 240.502 Z M 85.387 192.871 L 140.387 192.871 L 112.887 240.502 L 85.387 192.871 Z M 85.387 288.133 L 140.387 288.133 L 112.887 240.502 L 85.387 288.133 Z M 140.387 288.133 L 195.387 288.133 L 167.887 240.502 L 140.387 288.133 Z M 85.387 288.133 L 140.387 288.133 L 112.887 335.765 L 85.387 288.133 Z M 57.887 240.502 L 112.887 240.502 L 85.387 288.133 L 57.887 240.502 Z M 57.887 335.765 L 112.887 335.765 L 85.387 288.133 L 57.887 335.765 Z M 112.887 335.765 L 167.887 335.765 L 140.387 288.133 L 112.887 335.765 Z M 57.887 335.765 L 112.887 335.765 L 85.387 383.396 L 57.887 335.765 Z"/>
  <path fill="oklch(60% 0.15 200)" stroke="oklch(60% 0.15 200)" stroke-width=".5" d="M 30.387 288.133 L 85.387 288.133 L 57.887 335.765 L 30.387 288.133 Z M 30.387 383.396 L 85.387 383.396 L 57.887 335.765 L 30.387 383.396 Z M 85.387 383.396 L 140.387 383.396 L 112.887 335.765 L 85.387 383.396 Z M 30.387 383.396 L 85.387 383.396 L 57.887 431.028 L 30.387 383.396 Z M 2.887 335.765 L 57.887 335.765 L 30.387 383.396 L 2.887 335.765 Z M 250.387 97.608 L 305.387 97.608 L 277.887 145.239 L 250.387 97.608 Z M 277.887 49.976 L 332.887 49.976 L 305.387 97.608 L 277.887 49.976 Z"/>
  <path fill="oklch(60% 0.15 200)" stroke="oklch(60% 0.15 200)" stroke-width=".5" d="M 277.887 145.239 L 332.887 145.239 L 305.387 97.608 L 277.887 145.239 Z M 277.887 145.239 L 332.887 145.239 L 305.387 192.871 L 277.887 145.239 Z"/>
  <path fill="oklch(60% 0.15 200)" stroke="oklch(60% 0.15 200)" stroke-width=".5" d="M 305.387 97.608 L 360.387 97.608 L 332.887 145.239 L 305.387 97.608 Z M 250.387 192.871 L 305.387 192.871 L 277.887 145.239 L 250.387 192.871 Z"/>
  <path fill="oklch(60% 0.15 200)" stroke="oklch(60% 0.15 200)" stroke-width=".5" d="M 305.387 192.871 L 360.387 192.871 L 332.887 145.239 L 305.387 192.871 Z M 305.387 192.871 L 360.387 192.871 L 332.887 240.502 L 305.387 192.871 Z"/>
  <path fill="oklch(60% 0.15 200)" stroke="oklch(60% 0.15 200)" stroke-width=".5" d="M 332.887 145.239 L 387.887 145.239 L 360.387 192.871 L 332.887 145.239 Z M 277.887 240.502 L 332.887 240.502 L 305.387 192.871 L 277.887 240.502 Z M 332.887 240.502 L 387.887 240.502 L 360.387 192.871 L 332.887 240.502 Z M 332.887 240.502 L 387.887 240.502 L 360.387 288.133 L 332.887 240.502 Z M 360.387 192.871 L 415.387 192.871 L 387.887 240.502 L 360.387 192.871 Z M 305.387 288.133 L 360.387 288.133 L 332.887 240.502 L 305.387 288.133 Z M 360.387 288.133 L 415.387 288.133 L 387.887 240.502 L 360.387 288.133 Z M 360.387 288.133 L 415.387 288.133 L 387.887 335.765 L 360.387 288.133 Z M 387.887 240.502 L 442.887 240.502 L 415.387 288.133 L 387.887 240.502 Z M 332.887 335.765 L 387.887 335.765 L 360.387 288.133 L 332.887 335.765 Z M 387.887 335.765 L 442.887 335.765 L 415.387 288.133 L 387.887 335.765 Z M 387.887 335.765 L 442.887 335.765 L 415.387 383.396 L 387.887 335.765 Z"/>
  <path fill="oklch(60% 0.15 200)" stroke="oklch(60% 0.15 200)" stroke-width=".5" d="M 415.387 288.133 L 470.387 288.133 L 442.887 335.765 L 415.387 288.133 Z M 360.387 383.396 L 415.387 383.396 L 387.887 335.765 L 360.387 383.396 Z M 415.387 383.396 L 470.387 383.396 L 442.887 335.765 L 415.387 383.396 Z M 415.387 383.396 L 470.387 383.396 L 442.887 431.028 L 415.387 383.396 Z"/>
  <path fill="oklch(60% 0.15 200)" stroke="oklch(60% 0.15 200)" stroke-width=".5" d="M 442.887 335.765 L 497.887 335.765 L 470.387 383.396 L 442.887 335.765 Z M 387.887 431.028 L 442.887 431.028 L 415.387 383.396 L 387.887 431.028 Z M 442.887 431.028 L 497.887 431.028 L 470.387 383.396 L 442.887 431.028 Z M 2.887 431.028 L 57.887 431.028 L 30.387 383.396 L 2.887 431.028 Z M 57.887 431.028 L 112.887 431.028 L 85.387 383.396 L 57.887 431.028 Z M 57.887 431.028 L 112.887 431.028 L 85.387 478.658 L 57.887 431.028 Z M 85.387 383.396 L 140.387 383.396 L 112.887 431.028 L 85.387 383.396 Z M 112.887 431.028 L 167.887 431.028 L 140.387 383.396 L 112.887 431.028 Z M 112.887 431.028 L 167.887 431.028 L 140.387 478.658 L 112.887 431.028 Z M 140.387 383.396 L 195.387 383.396 L 167.887 431.028 L 140.387 383.396 Z M 140.387 383.396 L 195.387 383.396 L 167.887 335.765 L 140.387 383.396 Z M 167.887 431.028 L 222.887 431.028 L 195.387 383.396 L 167.887 431.028 Z M 167.887 431.028 L 222.887 431.028 L 195.387 478.658 L 167.887 431.028 Z M 195.387 383.396 L 250.387 383.396 L 222.887 431.028 L 195.387 383.396 Z M 195.387 383.396 L 250.387 383.396 L 222.887 335.765 L 195.387 383.396 Z M 222.887 431.028 L 277.887 431.028 L 250.387 383.396 L 222.887 431.028 Z M 222.887 431.028 L 277.887 431.028 L 250.387 478.658 L 222.887 431.028 Z M 250.387 383.396 L 305.387 383.396 L 277.887 431.028 L 250.387 383.396 Z M 250.387 383.396 L 305.387 383.396 L 277.887 335.765 L 250.387 383.396 Z M 277.887 431.028 L 332.887 431.028 L 305.387 383.396 L 277.887 431.028 Z M 277.887 431.028 L 332.887 431.028 L 305.387 478.658 L 277.887 431.028 Z M 305.387 383.396 L 360.387 383.396 L 332.887 431.028 L 305.387 383.396 Z M 305.387 383.396 L 360.387 383.396 L 332.887 335.765 L 305.387 383.396 Z M 332.887 431.028 L 387.887 431.028 L 360.387 383.396 L 332.887 431.028 Z M 332.887 431.028 L 387.887 431.028 L 360.387 478.658 L 332.887 431.028 Z M 360.387 383.396 L 415.387 383.396 L 387.887 431.028 L 360.387 383.396 Z M 387.887 431.028 L 442.887 431.028 L 415.387 478.658 L 387.887 431.028 Z"/>
  <path fill="oklch(27% 0.08 5)" stroke="oklch(27% 0.08 5)" stroke-width=".5" d="M 195.387 240.502 L 222.887 240.502 L 209.137 264.318 L 195.387 240.502 Z M 209.137 264.318 L 236.637 264.318 L 222.887 240.502 L 209.137 264.318 Z"/>
  <path fill="oklch(27% 0.08 5)" stroke="oklch(27% 0.08 5)" stroke-width=".5" d="M 222.887 240.502 L 250.387 240.502 L 236.637 264.318 L 222.887 240.502 Z M 250.387 240.502 L 277.887 240.502 L 264.137 264.318 L 250.387 240.502 Z M 236.637 264.318 L 264.137 264.318 L 250.387 288.133 L 236.637 264.318 Z"/>
  <path fill="oklch(27% 0.08 5)" stroke="oklch(27% 0.08 5)" stroke-width=".5" d="M 250.387 240.502 L 264.137 264.318 L 236.637 264.318 L 250.387 240.502 Z M 264.137 264.318 L 291.637 264.318 L 277.887 240.502 L 264.137 264.318 Z"/>
  <path fill="oklch(27% 0.08 5)" stroke="oklch(27% 0.08 5)" stroke-width=".5" d="M 277.887 240.502 L 305.387 240.502 L 291.637 264.318 L 277.887 240.502 Z M 250.387 335.765 L 264.137 359.58 L 236.637 359.58 L 250.387 335.765 Z M 236.637 311.949 L 264.137 311.949 L 250.387 288.133 L 236.637 311.949 Z M 250.387 335.765 L 264.137 311.949 L 236.637 311.949 L 250.387 335.765 Z"/>
</svg>