<svg xmlns="http://www.w3.org/2000/svg" width="1128" height="1429">
    <path fill="oklch(60% 0.15 200)" stroke="oklch(60% 0.15 200)" stroke-width=".5" d="M357.5 285.788h55L385 238.157zM330 333.42h55l-27.5-47.632z"/>
    <path fill="oklch(60% 0.15 200)" stroke="oklch(60% 0.15 200)" stroke-width=".5" d="M357.5 285.788h55L385 333.42zM385 333.42h55l-27.5-47.632zm-55 0h55l-27.5 47.631zm-27.5-47.632h55L330 333.42z"/>
    <path fill="oklch(60% 0.15 200)" stroke="oklch(60% 0.15 200)" stroke-width=".5" d="M302.5 381.051h55L330 333.42zm55 0h55L385 333.42zm-55 0h55L330 428.683z"/>
    <path fill="oklch(60% 0.15 200)" stroke="oklch(60% 0.15 200)" stroke-width=".5" d="M275 333.42h55l-27.5 47.631z"/>
    <path fill="oklch(60% 0.15 200)" stroke="oklch(60% 0.15 200)" stroke-width=".5" d="M275 428.683h55l-27.5-47.632zm55 0h55l-27.5-47.632zm-55 0h55l-27.5 47.631z"/>
    <path fill="oklch(60% 0.15 200)" stroke="oklch(60% 0.15 200)" stroke-width=".5" d="M247.5 381.051h55L275 428.683zm0 95.263h55L275 428.683zm55 0h55L330 428.683zm-55 0h55L275 523.945zM220 428.683h55l-27.5 47.631zm0 95.262h55l-27.5-47.631zm55 0h55l-27.5-47.631zm-55 0h55l-27.5 47.632zm-27.5-47.631h55L220 523.945zm0 95.263h55L220 523.945zm55 0h55L275 523.945zm-55 0h55L220 619.208z"/>
    <path fill="oklch(60% 0.15 200)" stroke="oklch(60% 0.15 200)" stroke-width=".5" d="M165 523.945h55l-27.5 47.632zm0 95.263h55l-27.5-47.631zm55 0h55l-27.5-47.631zm-55 0h55l-27.5 47.632zm-27.5-47.631h55L165 619.208zM385 333.42h55l-27.5 47.631zm27.5-47.632h55L440 333.42z"/>
    <path fill="oklch(60% 0.15 200)" stroke="oklch(60% 0.15 200)" stroke-width=".5" d="M412.5 381.051h55L440 333.42zm0 0h55L440 428.683z"/>
    <path fill="oklch(60% 0.15 200)" stroke="oklch(60% 0.15 200)" stroke-width=".5" d="M440 333.42h55l-27.5 47.631zm-55 95.263h55l-27.5-47.632z"/>
    <path fill="oklch(60% 0.15 200)" stroke="oklch(60% 0.15 200)" stroke-width=".5" d="M440 428.683h55l-27.5-47.632zm0 0h55l-27.5 47.631z"/>
    <path fill="oklch(60% 0.15 200)" stroke="oklch(60% 0.15 200)" stroke-width=".5" d="M467.5 381.051h55L495 428.683zm-55 95.263h55L440 428.683zm55 0h55L495 428.683zm0 0h55L495 523.945zm27.5-47.631h55l-27.5 47.631zm-55 95.262h55l-27.5-47.631zm55 0h55l-27.5-47.631zm0 0h55l-27.5 47.632zm27.5-47.631h55L550 523.945zm-55 95.263h55L495 523.945zm55 0h55L550 523.945zm0 0h55L550 619.208z"/>
    <path fill="oklch(60% 0.15 200)" stroke="oklch(60% 0.15 200)" stroke-width=".5" d="M550 523.945h55l-27.5 47.632zm-55 95.263h55l-27.5-47.631zm55 0h55l-27.5-47.631zm0 0h55l-27.5 47.632z"/>
    <path fill="oklch(60% 0.15 200)" stroke="oklch(60% 0.15 200)" stroke-width=".5" d="M577.5 571.577h55L605 619.208zm-55 95.263h55L550 619.208zm55 0h55L605 619.208zm-440 0h55L165 619.208zm55 0h55L220 619.208zm0 0h55L220 714.47zm27.5-47.632h55l-27.5 47.632zm27.5 47.632h55L275 619.208zm0 0h55L275 714.47zm27.5-47.632h55l-27.5 47.632zm0 0h55l-27.5-47.631zm27.5 47.632h55L330 619.208zm0 0h55L330 714.47zm27.5-47.632h55l-27.5 47.632zm0 0h55l-27.5-47.631zm27.5 47.632h55L385 619.208zm0 0h55L385 714.47zm27.5-47.632h55l-27.5 47.632zm0 0h55l-27.5-47.631zm27.5 47.632h55L440 619.208zm0 0h55L440 714.47zm27.5-47.632h55l-27.5 47.632zm0 0h55l-27.5-47.631zm27.5 47.632h55L495 619.208zm0 0h55L495 714.47zm27.5-47.632h55l-27.5 47.632zm27.5 47.632h55L550 714.47z"/>
    <path fill="oklch(27% 0.08 5)" stroke="oklch(27% 0.08 5)" stroke-width=".5" d="M330 476.314h27.5l-13.75 23.816zm13.75 23.816h27.5l-13.75-23.816z"/>
    <path fill="oklch(27% 0.08 5)" stroke="oklch(27% 0.08 5)" stroke-width=".5" d="M357.5 476.314H385l-13.75 23.816zm27.5 0h27.5l-13.75 23.816zm-13.75 23.816h27.5L385 523.945z"/>
    <path fill="oklch(27% 0.08 5)" stroke="oklch(27% 0.08 5)" stroke-width=".5" d="m385 476.314 13.75 23.816h-27.5zm13.75 23.816h27.5l-13.75-23.816z"/>
    <path fill="oklch(27% 0.08 5)" stroke="oklch(27% 0.08 5)" stroke-width=".5" d="M412.5 476.314H440l-13.75 23.816zM385 571.577l13.75 23.815h-27.5zm-13.75-23.816h27.5L385 523.945zM385 571.577l13.75-23.816h-27.5z"/>
</svg>
